// Untitled
// David William Hearn
// Created with StaffPad Editor

<global>
xfout_locc1=127
xf_cccurve=gain
xfin_locc1=0
xfin_hicc1=127
xfout_hicc1=127
amp_veltrack=0


<group>
group_label=Sustain
ampeg_attack=0
ampeg_decay=0
ampeg_release=0.35
ampeg_sustain=100


<region>
sample=Bassflute_fall_PP_A#3.opus
hivel=127
key=A#3
lovel=0
offset=535

<region>
sample=Bassflute_fall_PP_A#4.opus
hivel=127
key=A#4
lovel=0
offset=1030

<region>
sample=Bassflute_fall_PP_A#5.opus
hivel=127
key=A#5
lovel=0
offset=149

<region>
sample=Bassflute_fall_PP_A3.opus
hivel=127
key=A3
lovel=0
offset=1329

<region>
sample=Bassflute_fall_PP_A4.opus
hivel=127
key=A4
lovel=0
offset=830

<region>
sample=Bassflute_fall_PP_A5.opus
hivel=127
key=A5
lovel=0
offset=756

<region>
sample=Bassflute_fall_PP_B3.opus
hivel=127
key=B3
lovel=0
offset=1512

<region>
sample=Bassflute_fall_PP_B4.opus
hivel=127
key=B4
lovel=0
offset=1096

<region>
sample=Bassflute_fall_PP_C#3.opus
hivel=127
key=C#3
lovel=0
offset=943

<region>
sample=Bassflute_fall_PP_C#4.opus
hivel=127
key=C#4
lovel=0
offset=372

<region>
sample=Bassflute_fall_PP_C#5.opus
hivel=127
key=C#5
lovel=0
offset=509

<region>
sample=Bassflute_fall_PP_C3.opus
hivel=127
key=C3
lovel=0
offset=233

<region>
sample=Bassflute_fall_PP_C4.opus
hivel=127
key=C4
lovel=0
offset=2262

<region>
sample=Bassflute_fall_PP_C5.opus
hivel=127
key=C5
lovel=0
offset=804

<region>
sample=Bassflute_fall_PP_D#3.opus
hivel=127
key=D#3
lovel=0

<region>
sample=Bassflute_fall_PP_D#4.opus
hivel=127
key=D#4
lovel=0
offset=3415

<region>
sample=Bassflute_fall_PP_D#5.opus
hivel=127
key=D#5
lovel=0
offset=2029

<region>
sample=Bassflute_fall_PP_D3.opus
hivel=127
key=D3
lovel=0
offset=509

<region>
sample=Bassflute_fall_PP_D4.opus
hivel=127
key=D4
lovel=0
offset=481

<region>
sample=Bassflute_fall_PP_D5.opus
hivel=127
key=D5
lovel=0
offset=1457

<region>
sample=Bassflute_fall_PP_E3.opus
hivel=127
key=E3
lovel=0
offset=2359

<region>
sample=Bassflute_fall_PP_E4.opus
hivel=127
key=E4
lovel=0
offset=839

<region>
sample=Bassflute_fall_PP_E5.opus
hivel=127
key=E5
lovel=0
offset=5425

<region>
sample=Bassflute_fall_PP_F#3.opus
hivel=127
key=F#3
lovel=0
offset=289

<region>
sample=Bassflute_fall_PP_F#4.opus
hivel=127
key=F#4
lovel=0
offset=424

<region>
sample=Bassflute_fall_PP_F#5.opus
hivel=127
key=F#5
lovel=0
offset=5248

<region>
sample=Bassflute_fall_PP_F3.opus
hivel=127
key=F3
lovel=0

<region>
sample=Bassflute_fall_PP_F4.opus
hivel=127
key=F4
lovel=0
offset=877

<region>
sample=Bassflute_fall_PP_F5.opus
hivel=127
key=F5
lovel=0
offset=2936

<region>
sample=Bassflute_fall_PP_G#3.opus
hivel=127
key=G#3
lovel=0
offset=1132

<region>
sample=Bassflute_fall_PP_G#4.opus
hivel=127
key=G#4
lovel=0
offset=1144

<region>
sample=Bassflute_fall_PP_G#5.opus
hivel=127
key=G#5
lovel=0
offset=1811

<region>
sample=Bassflute_fall_PP_G3.opus
hivel=127
key=G3
lovel=0
offset=275

<region>
sample=Bassflute_fall_PP_G4.opus
hivel=127
key=G4
lovel=0
offset=1191

<region>
sample=Bassflute_fall_PP_G5.opus
hivel=127
key=G5
lovel=0
offset=1496



<group>
group_label=Release
ampeg_attack=0.01
ampeg_decay=0
ampeg_release=3.50
ampeg_sustain=100
offset=0
offset_random=0
rt_decay=0.000000
trigger=release


<region>
sample=Bassflute_fall_PP_A#3.opus
hivel=127
key=A#3
lovel=0
offset=92892

<region>
sample=Bassflute_fall_PP_A#4.opus
hivel=127
key=A#4
lovel=0
offset=92461

<region>
sample=Bassflute_fall_PP_A#5.opus
hivel=127
key=A#5
lovel=0
offset=67396

<region>
sample=Bassflute_fall_PP_A3.opus
hivel=127
key=A3
lovel=0
offset=96269

<region>
sample=Bassflute_fall_PP_A4.opus
hivel=127
key=A4
lovel=0
offset=96000

<region>
sample=Bassflute_fall_PP_A5.opus
hivel=127
key=A5
lovel=0
offset=90389

<region>
sample=Bassflute_fall_PP_B3.opus
end=121408
hivel=127
key=B3
lovel=0
offset=75236

<region>
sample=Bassflute_fall_PP_B4.opus
hivel=127
key=B4
lovel=0
offset=99826

<region>
sample=Bassflute_fall_PP_C#3.opus
hivel=127
key=C#3
lovel=0
offset=76504

<region>
sample=Bassflute_fall_PP_C#4.opus
hivel=127
key=c#4
lovel=0
offset=96000

<region>
sample=Bassflute_fall_PP_C#5.opus
hivel=127
key=C#5
lovel=0
offset=96000

<region>
sample=Bassflute_fall_PP_C3.opus
hivel=127
key=C3
lovel=0
offset=50322

<region>
sample=Bassflute_fall_PP_C4.opus
hivel=127
key=C4
lovel=0
offset=98016

<region>
sample=Bassflute_fall_PP_C5.opus
hivel=127
key=C5
lovel=0
offset=96000

<region>
sample=Bassflute_fall_PP_D#3.opus
hivel=127
key=D#3
lovel=0
offset=71653

<region>
sample=Bassflute_fall_PP_D#4.opus
hivel=127
key=D#4
lovel=0
offset=94889

<region>
sample=Bassflute_fall_PP_D#5.opus
hivel=127
key=D#5
lovel=0
offset=96000

<region>
sample=Bassflute_fall_PP_D3.opus
hivel=127
key=D3
lovel=0
offset=74837

<region>
sample=Bassflute_fall_PP_D4.opus
hivel=127
key=d4
lovel=0
offset=89180

<region>
sample=Bassflute_fall_PP_D5.opus
hivel=127
key=D5
lovel=0
offset=92739

<region>
sample=Bassflute_fall_PP_E3.opus
hivel=127
key=E3
lovel=0
offset=86914

<region>
sample=Bassflute_fall_PP_E4.opus
hivel=127
key=E4
lovel=0
offset=96000

<region>
sample=Bassflute_fall_PP_E5.opus
hivel=127
key=E5
lovel=0
offset=96000

<region>
sample=Bassflute_fall_PP_F#3.opus
hivel=127
key=F#3
lovel=0
offset=91391

<region>
sample=Bassflute_fall_PP_F#4.opus
hivel=127
key=F#4
lovel=0
offset=92050

<region>
sample=Bassflute_fall_PP_F#5.opus
hivel=127
key=F#5
lovel=0
offset=96000

<region>
sample=Bassflute_fall_PP_F3.opus
end=172800
key=f3
offset=70651

<region>
sample=Bassflute_fall_PP_F4.opus
hivel=127
key=F4
lovel=0
offset=96000

<region>
sample=Bassflute_fall_PP_F5.opus
hivel=127
key=F5
lovel=0
offset=81977

<region>
sample=Bassflute_fall_PP_G#3.opus
hivel=127
key=G#3
lovel=0
offset=96000

<region>
sample=Bassflute_fall_PP_G#4.opus
hivel=127
key=G#4
lovel=0
offset=96000

<region>
sample=Bassflute_fall_PP_G#5.opus
key=g#5
offset=106257

<region>
sample=Bassflute_fall_PP_G3.opus
hivel=127
key=G3
lovel=0
offset=78937

<region>
sample=Bassflute_fall_PP_G4.opus
hivel=127
key=G4
lovel=0
offset=96000

<region>
sample=Bassflute_fall_PP_G5.opus
hivel=127
key=G5
lovel=0
offset=104121

